<svg xmlns="http://www.w3.org/2000/svg" xmlns:xlink="http://www.w3.org/1999/xlink" width="500" zoomAndPan="magnify" viewBox="0 0 375 374.999991" height="500" preserveAspectRatio="xMidYMid meet" version="1.0"><defs><g/><clipPath id="075315d9bd"><path d="M 49 32.195312 L 325.714844 32.195312 L 325.714844 342.695312 L 49 342.695312 Z M 49 32.195312 " clip-rule="nonzero"/></clipPath></defs><g clip-path="url(#075315d9bd)"><path fill="#000000" d="M 325.695312 327.304688 C 325.554688 328.335938 325.65625 327.824219 325.21875 329.621094 C 324.914062 330.199219 325.027344 329.964844 324.730469 330.644531 C 324.789062 330.765625 324.761719 330.609375 324.832031 331.542969 C 324.621094 332.570312 324.761719 332.125 324.171875 333.539062 C 323.703125 334.632812 323.90625 334.335938 322.835938 335.835938 C 322.222656 336.347656 322.472656 336.160156 321.738281 336.660156 C 320.535156 337.015625 321.0625 336.828125 319.386719 337.507812 C 318.730469 338.78125 318.941406 338.46875 318.453125 338.964844 C 317.492188 339.667969 317.785156 339.488281 317.136719 339.792969 C 316.292969 340.058594 316.574219 339.890625 315.925781 340.574219 C 315.570312 340.839844 315.816406 340.679688 314.835938 341.265625 C 313.765625 341.683594 314.773438 341.488281 310.550781 341.816406 C 285.113281 342.179688 237.53125 342.3125 237.527344 342.3125 C 229.066406 342.136719 231.414062 342.398438 226.34375 341.695312 C 221.980469 341.449219 222.429688 341.460938 221.484375 341.097656 C 220.046875 340.019531 222.144531 341.390625 215.367188 338.234375 C 212.84375 337.363281 213.34375 337.574219 212.75 337.21875 C 210.859375 336.554688 211.472656 336.757812 210.019531 336.296875 C 205.363281 335.378906 207.605469 335.457031 205.742188 335.398438 C 199.976562 333.632812 205.523438 334.933594 197.488281 333.109375 C 193.488281 331.5625 194.957031 331.910156 186.863281 330.175781 C 183.660156 329.800781 184.601562 329.96875 181.316406 329.234375 C 178.984375 328.710938 179.339844 329.125 175.953125 328.433594 C 171.007812 327.667969 169.421875 327.152344 169.164062 327.109375 C 163.421875 325.671875 155.203125 322.890625 149.378906 320.464844 C 146.367188 319.476562 146.226562 319.347656 144.648438 319.304688 C 142.136719 317.414062 143.792969 318.320312 141.738281 317.148438 C 129.589844 311.246094 129.386719 310.667969 123.40625 306.652344 C 114.398438 300.796875 116.128906 302.390625 110.605469 297.546875 C 109.324219 295.800781 110.933594 297.960938 107.664062 294.527344 C 103.15625 290.164062 103.808594 289.78125 100.082031 284.890625 C 97.546875 280.925781 98.011719 281.40625 97.636719 281.304688 C 96.421875 280.625 96.667969 280.765625 96.011719 280.089844 C 95.378906 279.078125 95.484375 279.269531 95.410156 279.070312 L 95.097656 278.765625 C 94.285156 279.054688 94.929688 278.84375 94.03125 278.980469 C 93.632812 280.722656 93.871094 279.539062 93.542969 280.597656 C 93.167969 281.101562 93.332031 280.980469 92.84375 281.164062 C 92.53125 282.078125 92.414062 282.246094 92.242188 284.871094 C 90.164062 291.691406 90.453125 288.878906 88.914062 295.730469 C 88.269531 298.027344 88.535156 297.1875 87.757812 299.371094 C 85.722656 306.9375 85.769531 307.25 85.578125 311.019531 C 85.863281 312.929688 85.742188 312.105469 86.105469 314.695312 C 86.785156 316.550781 86.515625 315.949219 87.273438 317.359375 C 88.34375 319.585938 87.914062 318.773438 89.132812 320.921875 C 88.753906 320.671875 88.523438 320.300781 90.535156 322.910156 C 92.648438 325.894531 93.035156 325.707031 94.476562 328.027344 C 95.457031 329.164062 95.214844 328.941406 95.625 329.195312 C 97.042969 329.714844 96.558594 329.640625 97.765625 329.578125 C 99.925781 329.515625 99.292969 329.4375 100.613281 329.859375 C 101.917969 330.648438 101.261719 330.148438 103.59375 332.179688 C 104.535156 333.148438 104.359375 332.964844 104.53125 333.164062 C 106.28125 335.789062 106.691406 337.117188 106.957031 337.792969 C 107.003906 338.890625 107.101562 338.488281 106.292969 340.75 C 104.703125 342.695312 103.898438 342.21875 82.183594 342.292969 C 79.082031 342.269531 78.617188 342.371094 75.328125 341.777344 C 74.105469 341.644531 74.546875 341.726562 73.398438 341.414062 C 71.546875 340.519531 71.234375 339.882812 70.195312 338.382812 C 69.335938 336.71875 69.605469 337.386719 69.046875 335.441406 C 68.078125 330.441406 68.15625 330.835938 68.132812 330.742188 C 66.277344 325.339844 67.054688 327.046875 64.792969 319.660156 C 63.289062 315.242188 63.59375 315.976562 63.203125 315.417969 C 61.703125 312.503906 62.105469 313.355469 61.371094 311.589844 C 58.789062 306.3125 58.898438 306.558594 58.722656 305.070312 C 58.792969 304.21875 58.847656 304.539062 58.4375 303.671875 C 56.914062 300.339844 57.742188 296.984375 58.371094 294.183594 C 59.050781 291.015625 58.90625 292.292969 59.175781 288.042969 C 59.210938 286.175781 59.125 284.0625 59.207031 282.347656 C 59.320312 277.464844 59.128906 276.992188 58.742188 274.863281 C 58.109375 269.683594 58.664062 271.785156 58.089844 269.496094 C 57.734375 268.164062 57.980469 268.867188 56.949219 266.277344 C 56.507812 264.5 56.632812 265.261719 56.421875 262.890625 C 56.03125 261.347656 55.804688 260.34375 55.183594 258.558594 C 53.914062 254.308594 54.636719 256.917969 53.390625 250.070312 C 51.835938 242.953125 53.296875 247.570312 51.527344 239.121094 C 48.980469 223.636719 49.390625 223.835938 49.179688 219.335938 C 48.980469 218.078125 49.171875 217.214844 49.191406 214.421875 C 49.769531 209.8125 49.65625 210.605469 50.035156 209.503906 C 50.742188 207.195312 50.414062 208.125 51.492188 205.402344 C 54.988281 195.039062 52.820312 201.0625 59.242188 191.574219 C 63.824219 185.574219 62.257812 187.652344 64.515625 183.664062 C 65.789062 180.515625 65.488281 181.523438 65.910156 179.1875 C 65.914062 175.914062 65.839844 177.722656 65.980469 175.265625 C 65.714844 173.261719 65.898438 174.066406 65.128906 171.726562 C 64.21875 169.1875 64.542969 169.9375 63.691406 168.359375 C 62.679688 165.867188 62.96875 166.648438 62.390625 164.878906 C 61.226562 162.21875 61.71875 162.707031 60.238281 158.328125 C 60.058594 156.820312 60.183594 157.507812 59.648438 155.25 C 59.464844 153.753906 57.996094 145.730469 57.996094 145.71875 C 57.433594 144.023438 57.242188 142.046875 56.546875 136.25 C 55.558594 126.796875 55.535156 129.332031 54.601562 123.066406 C 54.152344 118.972656 54.21875 120.074219 54.257812 118.394531 C 54.117188 116.597656 54.1875 117.222656 53.949219 115.640625 C 52.828125 107.347656 53.222656 104.867188 53.578125 98.125 C 54.066406 92.125 53.878906 98.699219 54.121094 88.125 C 55.730469 77.941406 55.203125 81.03125 57.191406 74.046875 C 57.785156 72.121094 57.351562 72.972656 61.726562 63.921875 C 64.785156 58.34375 64.019531 59.605469 66.460938 56.027344 C 70.777344 50.164062 70.324219 50.71875 70.695312 50.566406 C 75.273438 45.519531 72.417969 48.671875 79.050781 42.414062 C 83.828125 38.816406 82.125 39.679688 89.136719 35.183594 C 95.867188 32.195312 95.460938 32.511719 98.222656 32.453125 C 99.777344 32.476562 99.777344 32.347656 101.535156 33.203125 C 102.625 33.730469 102.183594 33.453125 103.492188 34.460938 C 104.679688 35.546875 104.222656 35.09375 105.503906 36.46875 C 106.429688 37.730469 106.1875 37.324219 106.613281 38.28125 C 106.777344 38.632812 106.722656 38.414062 106.8125 39.203125 C 106.535156 40.410156 106.664062 40.554688 104.035156 43.222656 C 102.691406 44.171875 103.535156 43.492188 100.390625 46.238281 C 99.046875 47.585938 99.570312 47.101562 98.109375 48.363281 C 92.042969 52.921875 95.429688 50.5625 92.203125 52.820312 C 90.6875 54.300781 85.472656 58.804688 83.292969 62.621094 C 81.785156 66.445312 82.570312 64.890625 81.457031 66.800781 C 80.640625 68.050781 81.050781 67.304688 79.59375 70.238281 C 78.507812 72.257812 78.996094 71.09375 77.410156 75.582031 C 74.648438 86.558594 74.832031 87.785156 74.230469 97.226562 C 74.230469 99.449219 74.199219 98.652344 74.347656 100.722656 C 74.363281 108.070312 74.800781 103.648438 74.652344 110.078125 C 74.851562 113.414062 75.28125 114.28125 75.851562 117.800781 C 76.226562 121.648438 76.550781 121.984375 76.554688 124.296875 C 76.660156 125.742188 77.230469 127.453125 77.125 129.484375 C 77.222656 130.355469 77.113281 129.792969 77.660156 132.011719 C 77.929688 133.636719 77.859375 133.292969 77.992188 133.761719 C 80.628906 144.375 78.984375 138.1875 80.484375 144.183594 C 82.832031 151.28125 82.484375 150.183594 84.199219 153.917969 C 87.226562 158.910156 85.933594 157.792969 88.972656 162.390625 C 89.75 163.75 89.371094 163.183594 90.691406 164.898438 C 92.582031 166.933594 91.828125 166.269531 93.957031 167.84375 C 96.597656 169.171875 95.121094 168.53125 99.3125 170.015625 C 103.210938 171.320312 101.96875 170.714844 105.453125 172.625 C 106.40625 173.304688 105.863281 173.011719 107.933594 173.917969 C 117.007812 178.929688 111.996094 175.710938 117.703125 179.058594 C 119.28125 179.945312 119.867188 180.132812 121.542969 181.332031 C 122.601562 181.921875 126.269531 183.980469 127.570312 184.917969 C 132.203125 188.613281 129.355469 185.898438 133.996094 190.21875 C 138.535156 195.90625 136.234375 192.375 140.550781 198.367188 C 143.464844 202.296875 143.234375 201.988281 144.511719 204.6875 C 147.234375 209.449219 147.082031 210.167969 150.722656 217.984375 C 154.453125 227.402344 153.75 226.902344 155.5 231.441406 C 156.273438 233.089844 155.988281 232.429688 156.75 234.304688 C 158.132812 237.296875 159.207031 238.214844 161.277344 240.40625 C 163.164062 242.238281 163.097656 242.175781 163.105469 242.179688 C 165.644531 244.183594 164.9375 243.683594 166.074219 244.355469 C 171.210938 247.894531 169.667969 247.25 173.125 248.375 C 175.304688 248.941406 175.511719 249.171875 177.835938 248.511719 C 180.667969 248.539062 181.832031 248.292969 184.980469 248.164062 C 186.695312 248.050781 186.136719 248.015625 187.46875 248.277344 C 188.96875 248.355469 188.128906 248.355469 191.296875 248.265625 C 193.078125 248.519531 192.394531 248.335938 194.296875 249.125 C 195.742188 249.761719 195.246094 249.585938 197.628906 250.371094 C 198.40625 250.414062 198.058594 250.480469 199.183594 250.015625 C 200.234375 249.570312 199.816406 249.769531 201.015625 249.117188 C 203.351562 247.070312 202.925781 247.449219 203.683594 246.644531 C 203.605469 245.1875 203.199219 241.136719 204.394531 237.8125 C 205.117188 236.050781 204.746094 237.195312 205.894531 232.945312 C 206.527344 229.035156 207.40625 226.128906 208.457031 222.601562 C 209.300781 220.324219 208.941406 221.132812 210.058594 219.082031 C 211.183594 217.558594 210.777344 218.015625 211.84375 217.03125 C 213.804688 215.882812 214.03125 215.597656 215.695312 213.921875 C 216.601562 213.078125 216.347656 213.265625 216.796875 213.0625 C 217.101562 212.964844 216.976562 212.953125 217.347656 213.144531 C 218.0625 213.539062 217.808594 213.316406 218.464844 214.148438 C 218.613281 214.367188 218.472656 214.09375 219.253906 215.738281 C 220.242188 218.347656 219.800781 218.109375 220.597656 221.796875 C 220.703125 223.339844 220.667969 223.070312 220.753906 223.292969 C 221.367188 224.308594 221.15625 224.007812 221.679688 224.644531 C 222.507812 226.039062 221.769531 224.480469 223.859375 227.71875 C 224.445312 228.429688 223.917969 227.894531 226.195312 229.347656 C 228.1875 230.769531 228.023438 230.699219 231 230.910156 C 233.542969 230.738281 231.15625 231.125 235.070312 230.441406 C 238.546875 230.058594 243.074219 229.503906 246.664062 229.84375 C 247.929688 229.878906 247.734375 229.871094 247.855469 229.886719 C 249.320312 230.292969 248.589844 230.007812 251.167969 231.226562 C 256.800781 234.105469 251.789062 231.851562 257.707031 234.777344 C 261.03125 235.828125 259.136719 235.203125 267.464844 236.34375 C 270.628906 236.664062 270.523438 236.734375 271.078125 237.027344 C 271.5625 237.40625 271.414062 237.148438 271.644531 237.867188 C 272.359375 243 272.105469 241.230469 272.011719 243.226562 C 272.664062 246.574219 272.566406 245.914062 272.574219 246.601562 C 272.480469 248.257812 272.449219 247.582031 272.550781 248.433594 C 272.554688 249.441406 272.605469 249.03125 272.28125 250.242188 C 271.820312 251.644531 271.945312 251.296875 271.742188 251.820312 C 272.148438 252.179688 271.984375 252.046875 272.453125 252.398438 C 272.980469 253.238281 272.796875 252.839844 273.25 254.195312 C 273.367188 255.566406 273.363281 255.003906 273.238281 256.683594 C 272.847656 257.820312 272.988281 257.5 272.621094 258.144531 C 271.113281 259.75 271.792969 259.128906 269.570312 260.871094 C 265.183594 263.511719 262.964844 265.433594 258.683594 268.097656 C 256.320312 269.824219 256.847656 269.417969 256.054688 270.074219 C 253.644531 272.230469 254.484375 271.375 252.347656 273.785156 C 247.230469 279.84375 250.945312 275.398438 250.675781 275.835938 C 250.488281 276.332031 250.675781 276.058594 249.828125 276.96875 C 248.40625 278.355469 248.785156 277.960938 248.089844 278.75 C 246.65625 280.953125 246.96875 280.433594 246.542969 281.261719 C 243.949219 285.960938 245.691406 282.265625 243.710938 286.207031 C 243.433594 287.371094 243.460938 286.871094 243.640625 288.441406 C 243.8125 289.414062 243.707031 288.925781 244.125 290.648438 C 245.859375 295.082031 245.90625 294.421875 246.628906 296.222656 C 247.539062 297.964844 246.585938 296.613281 247.949219 299.160156 C 248.707031 301.175781 248.46875 300.433594 249.011719 302.40625 C 249.207031 304.910156 249.03125 302.148438 249.636719 306.859375 C 249.640625 306.867188 249.625 306.820312 250.109375 308.441406 C 250.566406 309.824219 251.011719 311.171875 250.5625 309.804688 C 251.132812 310.960938 250.894531 310.570312 251.589844 311.535156 C 252.546875 312.398438 252.515625 312.421875 252.808594 312.496094 C 253.496094 312.695312 257.570312 313.894531 257.789062 313.96875 C 260.832031 314.628906 259.375 314.164062 262.9375 315.164062 C 265.621094 315.730469 268.078125 316.320312 273.109375 316.503906 C 279.203125 316.851562 280.566406 316.761719 282.519531 316.71875 C 285.453125 317.261719 284.769531 317.097656 285.820312 317.449219 C 290.6875 319.289062 289.820312 317.773438 297.691406 317.859375 C 300.007812 317.09375 299.101562 317.453125 301.675781 316.230469 C 303.625 315.058594 302.964844 315.601562 304.585938 313.902344 C 307.113281 310.488281 307.105469 310.488281 309.488281 308.507812 C 310.621094 307.585938 310.242188 307.804688 311.175781 307.484375 C 312.121094 307.011719 311.976562 306.921875 313.746094 306.996094 C 315.019531 307.320312 314.597656 307.109375 315.609375 307.871094 C 316.375 308.757812 316.191406 308.488281 316.460938 309.085938 C 316.867188 309.742188 316.769531 309.546875 316.921875 309.96875 C 317.4375 311.242188 317.34375 310.863281 317.378906 311.671875 C 317.515625 311.914062 317.457031 311.710938 317.648438 312.734375 C 317.394531 314.449219 317.523438 313.820312 317.0625 315.464844 C 316.394531 317.574219 316.703125 316.78125 315.789062 318.605469 C 315.195312 319.359375 315.4375 319.109375 314.714844 319.679688 C 314.359375 319.953125 314.394531 319.921875 314.390625 319.9375 C 314.429688 320.058594 314.390625 319.988281 314.59375 320.269531 C 314.71875 321.359375 314.707031 320.765625 314.628906 322.976562 C 314.484375 324.4375 314.582031 324.023438 314.210938 324.867188 C 314.21875 324.957031 314.0625 324.953125 315.234375 324.789062 C 316.628906 324.679688 316.140625 324.75 317.390625 324.5 C 319.242188 324.351562 320.679688 324.1875 322.621094 324.738281 C 323.355469 324.96875 322.992188 324.792969 324.253906 325.558594 C 325.332031 326.671875 325.105469 326.472656 325.417969 326.660156 Z M 325.695312 327.304688 " fill-opacity="1" fill-rule="nonzero"/></g><g fill="#000000" fill-opacity="1"><g transform="translate(78.560083, 132.19959)"><g><path d="M 31.34375 -34.8125 L 55.9375 -34.8125 L 55.9375 -2.671875 C 51.957031 -1.367188 48.207031 -0.457031 44.6875 0.0625 C 41.164062 0.582031 37.566406 0.84375 33.890625 0.84375 C 24.523438 0.84375 17.375 -1.90625 12.4375 -7.40625 C 7.507812 -12.90625 5.046875 -20.800781 5.046875 -31.09375 C 5.046875 -41.101562 7.90625 -48.90625 13.625 -54.5 C 19.351562 -60.09375 27.296875 -62.890625 37.453125 -62.890625 C 43.816406 -62.890625 49.953125 -61.617188 55.859375 -59.078125 L 51.484375 -48.5625 C 46.960938 -50.820312 42.253906 -51.953125 37.359375 -51.953125 C 31.679688 -51.953125 27.128906 -50.039062 23.703125 -46.21875 C 20.285156 -42.40625 18.578125 -37.273438 18.578125 -30.828125 C 18.578125 -24.097656 19.953125 -18.957031 22.703125 -15.40625 C 25.460938 -11.863281 29.472656 -10.09375 34.734375 -10.09375 C 37.472656 -10.09375 40.257812 -10.375 43.09375 -10.9375 L 43.09375 -23.875 L 31.34375 -23.875 Z M 31.34375 -34.8125 "/></g></g></g><g fill="#000000" fill-opacity="1"><g transform="translate(141.451212, 132.19959)"><g><path d="M 43.515625 0 L 7.796875 0 L 7.796875 -62 L 43.515625 -62 L 43.515625 -51.234375 L 20.953125 -51.234375 L 20.953125 -37.625 L 41.9375 -37.625 L 41.9375 -26.84375 L 20.953125 -26.84375 L 20.953125 -10.859375 L 43.515625 -10.859375 Z M 43.515625 0 "/></g></g></g><g fill="#000000" fill-opacity="1"><g transform="translate(190.09324, 132.19959)"><g><path d="M 43.515625 0 L 7.796875 0 L 7.796875 -62 L 43.515625 -62 L 43.515625 -51.234375 L 20.953125 -51.234375 L 20.953125 -37.625 L 41.9375 -37.625 L 41.9375 -26.84375 L 20.953125 -26.84375 L 20.953125 -10.859375 L 43.515625 -10.859375 Z M 43.515625 0 "/></g></g></g><g fill="#000000" fill-opacity="1"><g transform="translate(238.735269, 132.19959)"><g><path d="M 57.6875 0 L 42.75 0 L 26.5 -26.125 L 20.953125 -22.140625 L 20.953125 0 L 7.796875 0 L 7.796875 -62 L 20.953125 -62 L 20.953125 -33.625 L 26.125 -40.921875 L 42.921875 -62 L 57.515625 -62 L 35.875 -34.5625 Z M 57.6875 0 "/></g></g></g><g fill="#000000" fill-opacity="1"><g transform="translate(144.322437, 212.170486)"><g><path d="M 53.484375 0 L 41.53125 0 L 41.53125 -24.421875 L 19.125 -24.421875 L 19.125 0 L 7.125 0 L 7.125 -56.578125 L 19.125 -56.578125 L 19.125 -34.40625 L 41.53125 -34.40625 L 41.53125 -56.578125 L 53.484375 -56.578125 Z M 53.484375 0 "/></g></g></g><g fill="#000000" fill-opacity="1"><g transform="translate(204.974934, 212.170486)"><g><path d="M 53.171875 -56.578125 L 53.171875 -19.96875 C 53.171875 -15.789062 52.234375 -12.125 50.359375 -8.96875 C 48.492188 -5.820312 45.796875 -3.410156 42.265625 -1.734375 C 38.734375 -0.0546875 34.550781 0.78125 29.71875 0.78125 C 22.445312 0.78125 16.796875 -1.082031 12.765625 -4.8125 C 8.742188 -8.539062 6.734375 -13.644531 6.734375 -20.125 L 6.734375 -56.578125 L 18.6875 -56.578125 L 18.6875 -21.9375 C 18.6875 -17.582031 19.5625 -14.382812 21.3125 -12.34375 C 23.070312 -10.300781 25.976562 -9.28125 30.03125 -9.28125 C 33.957031 -9.28125 36.800781 -10.304688 38.5625 -12.359375 C 40.332031 -14.410156 41.21875 -17.628906 41.21875 -22.015625 L 41.21875 -56.578125 Z M 53.171875 -56.578125 "/></g></g></g><g fill="#000000" fill-opacity="1"><g transform="translate(264.892003, 212.170486)"><g><path d="M 7.125 -56.578125 L 24.734375 -56.578125 C 32.753906 -56.578125 38.578125 -55.4375 42.203125 -53.15625 C 45.828125 -50.875 47.640625 -47.242188 47.640625 -42.265625 C 47.640625 -38.878906 46.847656 -36.101562 45.265625 -33.9375 C 43.679688 -31.769531 41.570312 -30.46875 38.9375 -30.03125 L 38.9375 -29.640625 C 42.519531 -28.847656 45.101562 -27.351562 46.6875 -25.15625 C 48.28125 -22.96875 49.078125 -20.050781 49.078125 -16.40625 C 49.078125 -11.25 47.210938 -7.222656 43.484375 -4.328125 C 39.753906 -1.441406 34.691406 0 28.296875 0 L 7.125 0 Z M 19.125 -34.171875 L 26.09375 -34.171875 C 29.34375 -34.171875 31.695312 -34.671875 33.15625 -35.671875 C 34.613281 -36.679688 35.34375 -38.347656 35.34375 -40.671875 C 35.34375 -42.835938 34.546875 -44.390625 32.953125 -45.328125 C 31.367188 -46.273438 28.859375 -46.75 25.421875 -46.75 L 19.125 -46.75 Z M 19.125 -24.65625 L 19.125 -9.90625 L 26.9375 -9.90625 C 30.238281 -9.90625 32.675781 -10.535156 34.25 -11.796875 C 35.820312 -13.066406 36.609375 -15.003906 36.609375 -17.609375 C 36.609375 -22.304688 33.253906 -24.65625 26.546875 -24.65625 Z M 19.125 -24.65625 "/></g></g></g></svg>